<mxfile host="app.diagrams.net" modified="2021-12-31T18:45:26.102Z" agent="5.0 (Windows NT 10.0; Win64; x64) AppleWebKit/537.36 (KHTML, like Gecko) Chrome/96.0.4664.110 Safari/537.36" etag="yu4GQAHgtpeBY3Wm6UKp" version="16.1.0" type="github">
  <diagram id="a8sYPAM0KUlG4BAwL-1h" name="Page-1">
    <mxGraphModel dx="1421" dy="-271" grid="1" gridSize="10" guides="1" tooltips="1" connect="1" arrows="1" fold="1" page="0" pageScale="1" pageWidth="850" pageHeight="1100" math="0" shadow="0">
      <root>
        <mxCell id="0" />
        <mxCell id="1" parent="0" />
        <mxCell id="QmN-2ntzo7VF6ew4Gruz-1" value="Compute" style="text;html=1;strokeColor=none;fillColor=none;align=left;verticalAlign=middle;whiteSpace=wrap;rounded=0;fontSize=20;fontStyle=1" vertex="1" parent="1">
          <mxGeometry x="-40" y="880" width="350" height="30" as="geometry" />
        </mxCell>
        <mxCell id="QmN-2ntzo7VF6ew4Gruz-2" value="App Services" style="aspect=fixed;html=1;points=[];align=center;image;fontSize=12;image=img/lib/azure2/app_services/App_Services.svg;strokeColor=#000000;fillColor=none;" vertex="1" parent="1">
          <mxGeometry x="17.75" y="1050" width="64" height="64" as="geometry" />
        </mxCell>
        <mxCell id="QmN-2ntzo7VF6ew4Gruz-3" value="Elastic Beanstalk" style="sketch=0;points=[[0,0,0],[0.25,0,0],[0.5,0,0],[0.75,0,0],[1,0,0],[0,1,0],[0.25,1,0],[0.5,1,0],[0.75,1,0],[1,1,0],[0,0.25,0],[0,0.5,0],[0,0.75,0],[1,0.25,0],[1,0.5,0],[1,0.75,0]];outlineConnect=0;fontColor=#232F3E;gradientColor=#F78E04;gradientDirection=north;fillColor=#D05C17;strokeColor=#ffffff;dashed=0;verticalLabelPosition=bottom;verticalAlign=top;align=center;html=1;fontSize=12;fontStyle=0;aspect=fixed;shape=mxgraph.aws4.resourceIcon;resIcon=mxgraph.aws4.elastic_beanstalk;" vertex="1" parent="1">
          <mxGeometry x="440" y="972" width="78" height="78" as="geometry" />
        </mxCell>
        <mxCell id="QmN-2ntzo7VF6ew4Gruz-4" value="Lightsail" style="sketch=0;points=[[0,0,0],[0.25,0,0],[0.5,0,0],[0.75,0,0],[1,0,0],[0,1,0],[0.25,1,0],[0.5,1,0],[0.75,1,0],[1,1,0],[0,0.25,0],[0,0.5,0],[0,0.75,0],[1,0.25,0],[1,0.5,0],[1,0.75,0]];outlineConnect=0;fontColor=#232F3E;gradientColor=#F78E04;gradientDirection=north;fillColor=#D05C17;strokeColor=#ffffff;dashed=0;verticalLabelPosition=bottom;verticalAlign=top;align=center;html=1;fontSize=12;fontStyle=0;aspect=fixed;shape=mxgraph.aws4.resourceIcon;resIcon=mxgraph.aws4.lightsail;" vertex="1" parent="1">
          <mxGeometry x="440" y="1150" width="78" height="78" as="geometry" />
        </mxCell>
        <mxCell id="QmN-2ntzo7VF6ew4Gruz-5" value="Load Balancer" style="aspect=fixed;html=1;points=[];align=center;image;fontSize=12;image=img/lib/azure2/networking/Load_Balancers.svg;" vertex="1" parent="1">
          <mxGeometry x="17.75" y="1360" width="72" height="72" as="geometry" />
        </mxCell>
        <mxCell id="QmN-2ntzo7VF6ew4Gruz-6" value="Application Gateway" style="aspect=fixed;html=1;points=[];align=center;image;fontSize=12;image=img/lib/azure2/networking/Application_Gateways.svg;" vertex="1" parent="1">
          <mxGeometry x="21.75" y="1500" width="64" height="64" as="geometry" />
        </mxCell>
        <mxCell id="QmN-2ntzo7VF6ew4Gruz-7" value="Networking &amp;amp; Content Delivery" style="text;html=1;strokeColor=none;fillColor=none;align=left;verticalAlign=middle;whiteSpace=wrap;rounded=0;fontSize=20;fontStyle=1" vertex="1" parent="1">
          <mxGeometry x="-40" y="1280" width="350" height="30" as="geometry" />
        </mxCell>
        <mxCell id="QmN-2ntzo7VF6ew4Gruz-8" value="Application Load Balancer" style="sketch=0;outlineConnect=0;fontColor=#232F3E;gradientColor=none;fillColor=#4D27AA;strokeColor=none;dashed=0;verticalLabelPosition=bottom;verticalAlign=top;align=center;html=1;fontSize=12;fontStyle=0;aspect=fixed;pointerEvents=1;shape=mxgraph.aws4.application_load_balancer;" vertex="1" parent="1">
          <mxGeometry x="440" y="1493" width="78" height="78" as="geometry" />
        </mxCell>
        <mxCell id="QmN-2ntzo7VF6ew4Gruz-9" value="Network Load Balancer" style="sketch=0;outlineConnect=0;fontColor=#232F3E;gradientColor=none;fillColor=#4D27AA;strokeColor=none;dashed=0;verticalLabelPosition=bottom;verticalAlign=top;align=center;html=1;fontSize=12;fontStyle=0;aspect=fixed;pointerEvents=1;shape=mxgraph.aws4.network_load_balancer;" vertex="1" parent="1">
          <mxGeometry x="440" y="1357" width="78" height="78" as="geometry" />
        </mxCell>
      </root>
    </mxGraphModel>
  </diagram>
</mxfile>
